<svg viewBox="0 0 120 120" fill="none" xmlns="http://www.w3.org/2000/svg">
  <defs>
    <linearGradient id="platformclaw-shell" x1="12" y1="10" x2="102" y2="108" gradientUnits="userSpaceOnUse">
      <stop offset="0" stop-color="#E35B5B"/>
      <stop offset="1" stop-color="#7E2323"/>
    </linearGradient>
    <linearGradient id="platformclaw-accent" x1="32" y1="24" x2="88" y2="92" gradientUnits="userSpaceOnUse">
      <stop offset="0" stop-color="#79E5D1"/>
      <stop offset="1" stop-color="#3AAE98"/>
    </linearGradient>
  </defs>
  <path d="M60 10 C30 10 15 35 15 55 C15 75 30 95 45 100 L45 110 L55 110 L55 100 C55 100 60 102 65 100 L65 110 L75 110 L75 100 C90 95 105 75 105 55 C105 35 90 10 60 10Z" fill="url(#platformclaw-shell)"/>
  <path d="M20 45 C5 40 0 50 5 60 C10 70 20 65 25 55 C28 48 25 45 20 45Z" fill="url(#platformclaw-shell)"/>
  <path d="M100 45 C115 40 120 50 115 60 C110 70 100 65 95 55 C92 48 95 45 100 45Z" fill="url(#platformclaw-shell)"/>
  <path d="M45 15 Q35 5 30 8" stroke="#D85B5B" stroke-width="3" stroke-linecap="round"/>
  <path d="M75 15 Q85 5 90 8" stroke="#D85B5B" stroke-width="3" stroke-linecap="round"/>
  <circle cx="45" cy="35" r="6" fill="#0C1118"/>
  <circle cx="75" cy="35" r="6" fill="#0C1118"/>
  <circle cx="46" cy="34" r="2.5" fill="url(#platformclaw-accent)"/>
  <circle cx="76" cy="34" r="2.5" fill="url(#platformclaw-accent)"/>
  <text
    x="60"
    y="86"
    text-anchor="middle"
    font-family="Georgia, 'Times New Roman', serif"
    font-size="28"
    font-weight="700"
    fill="#F4F7FB"
    opacity="0.94"
  >
    P
  </text>
</svg>
